<svg width="103" height="84" viewBox="0 0 103 84" fill="none" xmlns="http://www.w3.org/2000/svg">
<g clip-path="url(#clip0_8079_455)">
<path d="M57.57 28.54L40.4 41.93C45.1 45.81 49.33 49.75 54 53C57.46 55.42 58.12 57.83 56.82 61.73C54.55 68.59 52.82 75.62 50.69 82.99C35.6 71.72 19.69 61.99 8.47002 46.82C2.25002 38.41 -1.61998 29 0.660021 18.36C2.73002 8.68 9.25002 2.67 18.92 0.660001C28.59 -1.35 36.81 2 43.06 9.35C48.11 15.3 52.51 21.8 57.57 28.54Z" fill="#C92A46"/>
<path d="M53.1103 80.18C56.0103 74.06 58.7603 67.85 61.8903 61.84C63.3603 59.02 63.0203 57.2 60.8903 54.9C56.8103 50.53 53.1203 45.81 48.7603 40.63L67.9103 30.48C65.0603 24.71 62.4003 19.05 59.4803 13.54C58.1703 11.07 58.4803 9.44999 60.4803 7.53999C68.5703 -0.410007 80.9103 -2.34001 90.4303 2.99999C99.9503 8.33999 104 18.89 101.52 30.1C99.7203 38.1 95.6503 44.93 90.3603 51.01C87.1174 54.8247 83.5435 58.3451 79.6803 61.53C71.3003 68.29 62.6203 74.69 54.0703 81.24L53.1103 80.18Z" fill="#C92A46"/>
</g>
<defs>
<clipPath id="clip0_8079_455">
<rect width="102.24" height="83.02" fill="white"/>
</clipPath>
</defs>
</svg>
