<svg width="129" height="135" viewBox="0 0 129 135" fill="none" xmlns="http://www.w3.org/2000/svg">
<g clip-path="url(#clip0_8079_463)">
<path d="M57.6675 62.921C58.6197 64.3508 59.5185 65.8178 60.5376 67.1971C64.0898 72.0206 70.3168 73.6151 75.5328 71.0585C77.3678 70.1629 78.7613 68.7012 80.1683 67.2927C83.5199 63.9309 85.7989 59.894 87.3637 55.4585C87.7087 54.4752 88.3025 53.9968 89.2361 53.8347C90.0226 53.6836 90.8176 53.5798 91.6167 53.5238C93.4409 53.4387 94.9683 52.6601 96.3512 51.5705C97.5762 50.6058 97.5308 50.0875 96.2495 49.2025C96.3565 48.8597 96.7176 48.8199 96.9557 48.6338C97.4345 48.2511 97.8491 47.8073 97.6244 47.1721C97.3569 46.436 96.747 46.8267 96.2468 46.8665C95.9125 46.8931 95.4444 47.1004 95.2973 46.6778C95.1502 46.2553 95.6584 46.1171 95.9312 45.9656C97.1567 45.3269 98.2567 44.4744 99.1785 43.4489C99.553 43.0077 100.045 42.5506 99.7322 41.9394C99.5812 41.6382 99.3381 41.3922 99.0378 41.2365C98.7376 41.0809 98.3954 41.0237 98.0604 41.073C97.2126 41.1173 96.4036 41.4397 95.76 41.9899C97.4265 43.8767 97.0654 44.8707 94.5269 45.4926C94.1792 45.5776 93.7699 45.7583 93.564 45.3597C93.3179 44.8946 93.8315 44.8282 94.0856 44.6182C94.6205 44.1744 95.8403 44.0548 95.3748 43.1246C94.9897 42.346 94.024 42.8748 93.3099 43.0795C92.2399 43.3877 91.1994 43.7093 90.0546 43.6907C88.7519 43.6668 87.6258 44.2435 86.7137 45.1444C83.3674 48.4531 80.0934 51.8336 76.6964 55.0918C74.2717 57.4472 71.5533 59.4844 68.6076 61.1537C67.8292 61.5922 67.0963 61.6852 67.214 60.5637C67.6313 56.5268 66.0291 53.3245 63.2954 50.5313C63.2202 50.4209 63.1642 50.2987 63.1295 50.1699C64.606 50.4117 66.1896 52.078 67.1418 54.1563C68.0263 56.0408 68.4164 58.117 68.2759 60.1917C71.0153 58.4609 73.6006 56.5004 76.0036 54.3317C79.0716 51.5545 81.8187 48.4664 84.6487 45.4607C86.3445 43.6615 88.3346 42.5373 90.9319 42.237C89.763 41.0119 89.327 39.5183 88.8643 38.0593C88.5807 37.1717 88.1207 37.076 87.4172 37.464C86.4087 38.0194 85.411 38.6014 84.424 39.1994C80.7247 41.4451 76.6455 42.92 72.7831 44.8361C72.4995 44.977 72.1999 45.1471 71.9512 44.8069C71.6676 44.4189 71.9378 44.1372 72.2053 43.898C72.7162 43.4462 73.3742 43.2735 73.9867 43.013C78.6517 41.0172 83.3032 38.9974 87.4921 36.0847C88.011 35.7259 88.4577 35.3778 88.4684 34.6283C88.5433 29.3371 89.8058 24.1947 90.5334 18.9831C90.8652 16.479 90.9833 13.9515 90.8864 11.4276C90.8597 10.5506 90.2739 10.3327 89.7229 9.99785C87.6151 8.7169 86.1653 7.05325 86.3954 4.39832C86.6869 1.00724 89.8727 -0.954053 92.815 0.457124C94.0989 1.07368 94.7222 2.1128 94.5296 3.31403C94.3557 4.37706 92.8953 5.97161 91.9403 6.14701C91.6568 6.20016 91.4054 6.2108 91.2529 5.92112C91.2087 5.81792 91.2033 5.70237 91.2377 5.59554C91.272 5.48871 91.3439 5.3977 91.4401 5.33911C91.82 5.03083 92.2426 4.76507 92.6037 4.44616C94 3.24227 93.7164 1.8311 91.9698 1.23048C91.3581 1.00488 90.6916 0.970787 90.0599 1.1328C89.4282 1.29482 88.8616 1.64517 88.4363 2.13672C87.3663 3.4283 87.0106 4.89263 87.7087 6.47655C88.4069 8.06047 89.7149 8.96405 91.277 9.47697C93.136 10.0882 95.0218 10.6118 96.9289 11.0715C100.47 11.9326 103.814 13.2162 106.719 15.4539C107.227 15.8445 107.489 15.9641 108.016 15.4539C108.543 14.9436 109.26 14.6061 109.918 14.2394C111.239 13.5006 113.197 14.0135 113.114 15.8339C113.114 16.0997 113.074 16.4505 113.382 16.5143C114.452 16.7348 114.987 17.3381 115.067 18.4277C115.088 18.7493 115.476 18.6722 115.73 18.7174C117.648 19.0708 118.042 20.0462 117.001 21.7045C116.768 22.0739 116.025 22.3716 116.701 23.012C117.236 23.517 117.632 23.8093 118.306 23.121C119.102 22.3483 119.972 21.6549 120.904 21.0507C121.768 20.4634 121.647 20.0781 120.904 19.4881C120.157 18.8594 119.459 18.1763 118.815 17.4444C118.146 16.7269 118.499 16.1422 119.285 15.9694C122.107 15.3582 124.903 14.6061 127.845 14.7496C128.813 14.7975 129.115 15.2811 128.942 16.1289C128.407 18.7865 127.757 21.3989 126.518 23.8359C126.197 24.4711 125.807 25.1647 124.961 25.0876C124.178 25.0238 123.75 24.4126 123.445 23.7402C122.345 21.3192 122.345 21.3192 120.28 22.9881C118.288 24.5986 118.277 24.6039 119.478 26.8071C123.011 33.3049 124.055 40.0711 121.618 47.1668C120.526 50.34 118.718 53.1384 116.627 55.7508C115.49 57.17 114.265 58.52 113.149 59.9551C112.034 61.3902 111.207 62.9396 111.261 64.8105C111.338 67.5718 114.505 69.4401 117.004 68.2282C118.132 67.6807 118.108 66.7134 117.913 65.7194C117.769 64.9966 117.378 64.3269 117.365 63.5429C118.63 64.1913 119.208 65.3793 119.082 66.9393C118.975 68.2681 118.197 69.0653 116.99 69.4055C114.963 69.9663 113.114 69.5729 111.534 68.1192C110.052 66.7559 109.854 65.0816 110.303 63.2399C110.565 62.2544 110.98 61.3156 111.534 60.4574C111.756 60.0933 111.991 59.8116 111.344 59.5778C106.885 57.9673 103.159 55.1263 99.3791 52.4023C98.4509 51.7326 97.7742 51.6847 96.9557 52.4687C95.2759 54.0633 93.1226 54.4327 90.9239 54.6373C90.7474 54.6559 90.5628 54.6373 90.3889 54.6692C89.1344 54.911 88.3641 55.3841 87.8639 56.8378C85.8791 62.6233 82.4232 67.4389 77.3785 71.0426C77.2626 71.1012 77.1637 71.188 77.0907 71.2949C77.0177 71.4018 76.9732 71.5252 76.9612 71.6538C76.8221 74.8668 75.3188 77.5776 73.7754 80.2777C71.6998 83.8561 68.8792 86.953 65.5021 89.3613C65.1116 89.6457 64.5258 90.3127 64.146 89.8476C63.7661 89.3826 64.5552 89.0158 64.9163 88.6996C67.9255 86.042 70.801 83.2914 72.8874 79.8126C73.9606 77.9753 74.8382 76.0318 75.5061 74.0138C75.6425 73.6178 75.9875 73.1686 75.5569 72.7913C75.1851 72.467 74.7116 72.6185 74.2783 72.7514C71.6462 73.5487 68.9928 73.647 66.3955 72.7089C61.7413 71.016 58.6064 67.9252 57.6675 62.921ZM104.424 18.1088C100.933 20.2641 100.62 20.9365 101.337 25.0185C101.548 26.2198 101.107 27.1127 100.243 27.8356C99.1544 28.7445 98.039 29.6294 96.8808 30.4559C94.9281 31.8485 92.9461 33.2039 90.9533 34.5406C89.9182 35.2316 89.7042 36.1219 89.9315 37.2939C90.2498 38.931 91.0737 40.3528 91.6916 41.8623C91.828 42.1945 92.0179 42.1839 92.3148 42.1281C94.8158 41.6763 96.7203 39.7362 99.2694 39.3987C99.4192 39.3801 99.5369 39.1861 99.684 39.0745C103.362 36.0608 107.048 33.0604 110.712 30.0387C111.515 29.361 112.617 28.7896 112.941 27.7957C113.542 25.9646 113.928 27.2057 114.388 27.7957C114.634 28.1096 114.85 28.4459 115.032 28.8003C118.467 35.4681 118.94 42.4018 116.905 49.5533C116.37 51.4455 115.773 53.3245 115.137 55.4426C115.367 55.3171 115.586 55.1731 115.792 55.012C116.077 54.7327 116.345 54.4363 116.594 54.1244C121.642 47.608 123.193 40.4166 120.711 32.4996C119.804 29.6135 118.338 26.9692 116.731 24.4126C116.209 23.5834 115.623 23.1635 114.639 24.0565C113.501 25.0501 112.175 25.8089 110.739 26.2888C109.937 26.5759 109.33 26.4643 109.017 25.6245C108.848 25.1727 108.642 25.0478 108.099 24.976C106.962 24.8245 105.938 24.3222 105.959 22.8898C105.959 22.5842 106.056 22.2493 105.657 22.1058C105.258 21.9623 105.074 22.2068 104.881 22.4646C104.689 22.7224 104.584 23.1981 104.119 23.028C103.723 22.8845 103.803 22.4433 103.712 22.1111C103.549 21.5265 103.464 20.9976 104.092 20.599C104.59 20.2827 104.734 19.7618 104.729 19.209C104.729 18.5978 104.884 18.0424 105.387 17.6862C106.655 16.796 106.069 16.2591 105.119 15.5788C101.348 12.8468 96.7845 12.3897 92.5021 11.1061C91.9029 10.9254 91.8761 11.2389 91.9189 11.7412C92.0876 13.5058 92.0526 15.2838 91.8146 17.0405C91.1941 21.3298 90.5307 25.6165 89.9422 29.9111C89.7684 31.1735 89.8058 32.4651 89.7363 33.9746C90.8276 33.1933 91.6087 32.6272 92.4111 32.0638C94.4734 30.5968 96.731 29.4062 98.681 27.7771C99.783 26.8576 100.508 25.8557 100.085 24.2212C99.5797 22.2626 99.8178 20.3385 101.364 18.7891C102.204 17.9706 103.129 17.5959 104.424 18.1088ZM116.996 42.7366C116.996 37.4534 116.153 33.467 114.321 29.6852C113.879 28.779 113.591 28.8375 112.941 29.4195C111.959 30.3177 110.9 31.131 109.875 31.9814C106.799 34.5327 103.726 37.0866 100.655 39.6432C100.409 39.8478 99.898 39.909 100.286 40.5362C101.407 42.3247 101.238 42.928 99.7348 44.4056C99.1143 45.0115 98.2557 45.6467 98.6221 46.723C98.9458 47.6771 98.8896 48.5833 98.3546 49.3806C98.0443 49.8377 98.1567 50.0663 98.5258 50.3559C102.514 53.4892 106.609 56.4498 111.365 58.3553C111.929 58.5812 112.194 58.5041 112.499 57.9513C115.308 52.87 116.891 47.4485 117.001 42.7366H116.996ZM107.949 23.6658C108.05 23.5826 108.155 23.5054 108.265 23.4346C110.121 22.3239 111.829 20.9845 113.347 19.4482C113.783 19.015 114.275 18.433 113.665 17.8537C113.131 17.3408 112.448 17.4311 111.863 17.9307C111.092 18.5898 110.303 19.2303 109.538 19.892C108.869 20.4714 108.201 21.0534 107.569 21.6647C107.056 22.1536 107.302 22.7277 107.505 23.2592C107.591 23.4426 107.663 23.6685 107.949 23.6658ZM105.579 21.274C108.163 20.0542 110.062 18.2337 111.881 16.3176C112.021 16.2031 112.112 16.0406 112.137 15.8625C112.162 15.6843 112.118 15.5034 112.015 15.3555C111.904 15.2148 111.754 15.1098 111.583 15.0535C111.412 14.9973 111.228 14.9923 111.055 15.0393C110.704 15.1023 110.367 15.2293 110.062 15.414C108.011 16.8252 105.716 18.0716 105.579 21.2873V21.274ZM110.539 25.1567C110.667 25.1431 110.792 25.1099 110.91 25.0584C112.911 24.0591 114.706 22.7941 116.043 20.9763C116.271 20.6654 116.495 20.2774 116.081 19.9133C115.913 19.7642 115.699 19.6761 115.474 19.6636C115.249 19.651 115.026 19.7147 114.842 19.8442C113.032 20.9072 111.544 22.3583 109.958 23.6924C109.808 23.8286 109.707 24.0106 109.672 24.2098C109.638 24.4089 109.67 24.614 109.766 24.7926C109.886 25.0823 110.097 25.2046 110.539 25.17V25.1567ZM122.645 18.7094C123.685 18.9752 124.785 18.7387 125.74 19.31C125.956 19.4403 126.24 19.6422 126.422 19.31C126.633 18.9327 126.315 18.7785 126.029 18.627C124.892 18.0238 123.771 18.3374 122.645 18.7094Z" fill="#C92A46"/>
<path d="M17.0815 105.974C17.6968 105.647 18.0819 106.115 18.4992 106.404C22.2734 109.062 26.2884 111.164 30.7714 112.421C36.8754 114.13 43.0757 111.807 46.224 106.447C47.615 104.087 47.5053 103.59 45.2504 102.11C42.5342 100.329 40.0226 98.2581 37.7608 95.9335C32.8658 90.8841 30.0037 81.6597 34.7623 73.3122C35.3989 72.1933 35.3508 71.3961 34.5269 70.5058C33.8957 69.8228 33.3152 69.0919 32.716 68.3797C32.5288 68.1591 32.1383 67.9704 32.3844 67.6223C32.5877 67.3326 32.9621 67.4735 33.259 67.5186C33.4786 67.5615 33.6874 67.6472 33.8734 67.7708C34.0593 67.8945 34.2187 68.0535 34.3424 68.2388C34.6047 68.6501 34.9105 69.0323 35.2545 69.379C35.645 69.7112 35.8563 70.7077 36.4929 70.2188C37.1295 69.7298 37.9026 69.1876 37.496 68.0289C35.982 63.6762 35.0661 59.1404 34.773 54.5443C34.7514 54.3272 34.6851 54.1169 34.5784 53.9263C34.4716 53.7357 34.3267 53.5688 34.1524 53.4361C33.788 53.1121 33.444 52.7659 33.1226 52.3996C32.8953 52.1339 32.6652 51.7485 32.9835 51.4535C33.3018 51.1586 33.5345 51.5652 33.786 51.7193C37.5308 54.1111 41.428 53.5637 44.3356 50.2018C44.6405 49.8484 44.9027 49.3727 44.793 49.0059C44.6432 48.4983 44.0226 48.6206 43.6241 48.7083C41.9309 49.083 40.984 48.0492 40.0264 46.8479C39.9221 47.6824 40.0478 48.4717 39.5904 49.16C39.1009 49.8962 38.3841 50.1726 37.5629 50.2895C36.7417 50.4065 36.1425 50.1912 35.8964 49.2265C35.5353 47.8419 35.629 46.4094 35.3214 45.0222C34.7409 42.3646 33.6469 40.1243 30.8035 39.133C28.8669 38.458 27.674 36.9617 27.0587 35.0669C26.5306 33.326 26.2338 31.5239 26.176 29.7065C26.1172 28.5744 26.5532 28.5186 27.4279 28.9465C28.6208 29.5311 29.8352 30.0573 31.0148 30.5915C31.4161 30.4267 31.2823 30.1211 31.3064 29.8819C31.491 28.1465 32.1517 27.801 33.671 28.6568C34.6125 29.1883 35.2759 30.0228 36.1131 30.7323C37.4014 28.7322 38.0539 26.393 37.9855 24.0193C37.9365 23.077 38.2524 22.1518 38.8682 21.4335C39.1223 21.1411 39.24 20.8833 39.0554 20.4874C38.1299 18.5048 38.6676 16.7667 40.0639 15.2386C41.5832 13.5776 43.4689 13.2853 45.566 13.9098C45.7319 13.9577 45.9057 13.9763 46.1144 14.0188C46.1623 13.8965 46.1894 13.7672 46.1946 13.6361C45.542 10.1414 47.6364 7.46519 51.1966 7.37749C52.0632 7.35357 52.4966 7.16488 52.8924 6.33838C53.8741 4.28406 56.2119 3.8429 57.7901 5.2966C58.0576 5.53313 58.3973 5.79357 58.1298 6.18158C57.9212 6.47923 57.5627 6.36761 57.2658 6.25599C57.0568 6.18315 56.8538 6.0943 56.6586 5.99023C55.8562 5.55173 55.0537 5.33647 54.3315 6.07793C53.6093 6.8194 53.299 7.7469 53.6681 8.75678C54.2566 10.3513 55.3881 11.2841 57.1455 11.4383C57.5788 11.4755 58.3251 11.3479 58.2796 12.0256C58.2395 12.6369 57.5253 12.5305 57.0652 12.5571C56.1198 12.5877 55.1894 12.3168 54.4101 11.7841C53.6309 11.2514 53.0437 10.4848 52.7346 9.59657C52.3387 8.54683 51.6647 8.42724 50.7766 8.51759C48.5217 8.74615 47.0318 10.5852 47.2298 12.8521C47.3038 13.6908 47.4937 14.5153 47.7942 15.3024C47.9199 15.6293 47.9894 16.0146 47.6203 16.2645C47.2512 16.5143 47.0238 16.2352 46.7751 16.0678C46.4808 15.8685 46.2267 15.6133 45.9325 15.4167C45.4044 15.0577 44.7965 14.8313 44.161 14.757C43.5255 14.6827 42.8814 14.7626 42.2838 14.99C41.6863 15.2173 41.1531 15.5853 40.7301 16.0623C40.3071 16.5393 40.0069 17.1112 39.8552 17.7288C39.4272 19.4084 40.334 20.8275 42.2198 21.4494C42.6103 21.577 43.2897 21.5238 43.1506 22.1297C43.0115 22.7357 42.3856 22.6028 41.8881 22.5018C41.8453 22.5018 41.8025 22.4779 41.7597 22.4673C39.4299 21.8666 39.4272 21.8666 39.1865 24.3781C39.1277 24.992 39.0528 25.6112 39.0554 26.2384C39.0715 28.5691 39.882 29.4647 42.2358 29.8075C43.4903 29.9882 43.699 30.4002 43.0838 31.4738C43.0423 31.5523 42.9939 31.627 42.9393 31.6971C40.7433 34.5008 41.3344 35.9811 44.4961 36.9697C46.0288 37.4507 46.0716 38.0194 45.0525 39.2765C44.598 39.822 44.2627 40.4555 44.0681 41.1368C43.7739 42.1786 44.0842 43.021 45.0632 43.4728C46.5958 44.1771 48.1901 44.4774 49.8217 43.7386C50.1614 43.5844 50.5653 43.2071 50.8194 43.7678C51.0174 44.185 50.7124 44.4986 50.354 44.7485C48.7892 45.846 44.5416 45.2268 43.3994 43.6854C42.3937 42.3168 42.827 40.9375 43.4181 39.5316C43.6187 39.0612 44.5309 38.5643 43.7391 37.9822C43.0329 37.464 42.2305 37.6288 41.5083 38.1576C39.7161 39.4652 39.1731 42.2689 40.2645 44.6926C41.3023 47.0021 42.292 47.5682 44.7769 47.0233C45.978 46.7576 46.0528 47.5549 45.9539 48.1953C45.5099 51.0682 47.0987 53.4069 47.8824 55.9528C48.1178 56.7209 48.3853 57.0159 49.0621 56.1867C51.2768 53.4547 53.0422 50.5314 53.4568 46.9622C53.4863 46.7151 53.4221 46.351 53.7671 46.3191C54.1603 46.2819 54.2218 46.6593 54.3021 46.9516C54.7033 48.2804 54.2085 49.5055 53.7671 50.6908C52.6945 53.5265 50.8783 55.9475 48.8561 58.2011C46.1812 61.175 43.3646 64.0106 40.7326 67.0164C38.1005 70.0221 35.431 73.1102 34.2621 76.9929C32.0099 84.4661 34.2889 90.8416 39.6359 96.2843C42.2947 98.9924 45.5446 100.972 48.5672 103.231C50.7891 104.864 52.8411 106.713 54.6926 108.751C55.0192 109.111 55.2636 109.537 55.4091 110C55.5545 110.463 55.5975 110.952 55.5352 111.433C55.1527 116.418 54.7648 121.404 55.2329 126.411C55.2811 126.942 55.4576 127.888 54.8745 127.912C54.1122 127.941 54.1015 126.982 54.0587 126.352C53.8313 122.943 53.9891 119.536 54.1496 116.129C54.2352 114.316 54.2994 112.504 54.3957 110.691C54.4191 110.472 54.3935 110.25 54.321 110.041C54.2484 109.833 54.1305 109.643 53.9758 109.485C52.4562 107.868 50.8385 106.345 49.1316 104.924C48.2944 104.249 48.1259 104.948 47.9145 105.41C47.0013 107.488 45.6226 109.33 43.8835 110.797C39.8713 114.141 35.324 114.664 30.4317 113.428C25.8283 112.267 21.7251 110.101 18.0044 107.194C17.5791 106.862 17.1645 106.524 17.127 105.929L17.0815 105.974ZM38.681 67.4628C41.4922 64.4943 44.2206 61.6161 46.9569 58.73C47.3502 58.3154 47.3314 57.8902 47.1495 57.4012C46.5022 55.6233 45.8496 53.8427 45.2584 52.0435C44.9909 51.2037 44.6352 51.3791 44.1457 51.8176C43.144 52.7297 41.9698 53.4348 40.6914 53.892C39.413 54.3491 38.0558 54.5492 36.6989 54.4805C35.8964 54.454 35.7894 54.7463 35.8964 55.4027C36.0703 56.6252 36.18 57.861 36.3859 59.0782C36.8487 61.9005 37.3623 64.7096 38.681 67.4628ZM38.4135 42.0244C37.8384 42.3194 37.3649 42.8483 36.8567 42.5055C36.2281 42.0802 37.068 41.6896 37.044 41.2458C37.0604 41.069 37.0604 40.891 37.044 40.7142C36.5304 38.5536 36.509 36.3345 36.2575 34.142C36.1912 33.345 35.9367 32.5747 35.5147 31.8936C35.0927 31.2126 34.5151 30.6399 33.8288 30.2221C33.5105 30.0175 33.2189 29.5497 32.799 29.7676C32.3282 30.0148 32.5128 30.5649 32.5315 30.9715C32.6399 33.8538 33.4142 36.6726 34.7944 39.21C35.0191 39.6364 35.2071 40.0809 35.3561 40.5388C36.188 42.9307 36.4394 45.4394 36.8647 47.911C36.9289 48.299 36.9236 48.7481 37.4746 48.788C37.8411 48.8119 38.2369 48.7694 38.4161 48.4212C38.6056 48.0762 38.7222 47.6964 38.7585 47.305C38.8495 45.5696 38.9003 43.8502 38.4215 42.0244H38.4135ZM38.903 41.1022C39.0501 40.7993 39.2908 40.5468 39.2561 40.3395C38.9886 38.8167 39.5958 37.7696 40.9466 37.084C41.0106 37.064 41.0685 37.0283 41.1149 36.9801C41.1613 36.932 41.1947 36.8729 41.2121 36.8085C41.2294 36.7441 41.2301 36.6764 41.2141 36.6117C41.1981 36.5469 41.1658 36.4873 41.1204 36.4382C39.9515 34.7214 40.5159 33.164 41.5805 31.6545C41.9577 31.123 41.7838 30.8573 41.206 30.7403C40.2913 30.5375 39.4552 30.076 38.7987 29.4115C38.3279 28.9465 38.0417 29.1086 37.8384 29.656C37.441 30.6435 37.271 31.7068 37.3409 32.7681C37.5789 35.5452 37.94 38.2852 38.911 41.1022H38.903ZM27.4493 30.2061C27.6338 32.3322 27.789 34.2377 28.8081 35.9625C29.4277 37.0519 30.4324 37.874 31.6274 38.2693C31.9484 38.3756 32.3148 38.5829 32.6144 38.24C32.8578 37.961 32.6599 37.6527 32.585 37.363C32.3175 36.3399 31.836 35.3273 31.8039 34.2988C31.7397 32.2791 30.635 31.2878 28.8616 30.7323C28.4978 30.6074 28.1314 30.4506 27.4573 30.2008L27.4493 30.2061Z" fill="#C92A46"/>
<path d="M17.7023 25.2471C15.0275 24.3143 12.5319 23.2778 10.3091 21.6992C9.50379 21.1416 8.79775 20.4545 8.22001 19.6661C6.76489 17.6517 7.28381 15.9216 9.62965 15.0685C12.5265 14.0055 15.5143 14.0772 18.4567 14.6805C25.0983 16.0332 31.1007 18.8529 36.5948 22.7675C36.9666 23.0333 37.6862 23.3363 37.3438 23.8306C36.9613 24.378 36.3487 23.8306 35.9769 23.5489C34.3852 22.4114 32.7076 21.3976 30.9589 20.5166C25.767 17.8058 20.4387 15.4884 14.4203 15.414C13.1265 15.3838 11.8356 15.5505 10.5926 15.9083C9.79014 16.1475 8.80847 16.3202 8.63728 17.2849C8.45807 18.2922 8.96896 19.1453 9.74199 19.8522C11.5582 21.4892 13.7382 22.4832 15.9797 23.3682C17.3038 23.8997 18.6385 24.3807 19.9439 24.9468C20.3451 25.1222 21.0138 25.3427 20.7303 25.9593C20.4842 26.4908 19.9439 26.1108 19.5373 26.0098C18.5637 25.7733 16.3275 27.5352 16.2767 28.5877C16.2499 29.1006 16.6592 29.1192 16.9801 29.2228C18.2453 29.6401 19.5212 30.0201 20.7784 30.4692C21.1466 30.6177 21.4923 30.8163 21.8056 31.0592C21.9021 31.119 21.9747 31.2103 22.0108 31.3175C22.0469 31.4247 22.0444 31.541 22.0035 31.6465C21.8885 31.8857 21.629 31.8591 21.4177 31.798C20.6955 31.5828 19.9626 31.3861 19.2591 31.115C14.415 29.2547 9.62965 29.1511 4.89517 31.4844C3.55284 32.1011 2.41258 33.0811 1.6051 34.3121C0.826719 35.5452 0.98721 36.5391 2.09192 37.5012C3.19664 38.4632 4.59291 38.83 6.02395 38.9894C7.71323 39.1417 9.41575 39.0522 11.0794 38.7237C16.1964 37.8201 20.9924 38.8964 25.6065 41.0597C25.981 41.2351 26.6524 41.4264 26.4571 41.9022C26.1896 42.5214 25.6065 42.0536 25.1839 41.9261C22.9718 41.2564 20.8292 40.3687 18.569 39.8425C15.6828 39.1702 12.8047 39.4598 9.95063 39.986C7.43686 40.4546 4.83862 40.1332 2.51722 39.0665C-0.120178 37.9025 -0.759467 35.4867 0.955112 33.1906C2.66969 30.8944 5.26162 29.9669 7.87762 29.2042C9.92924 28.6009 12.0424 28.2289 14.2063 28.5584C14.6503 28.6249 15.0088 28.5584 15.2014 28.1252C15.739 26.9745 16.6297 26.1161 17.7023 25.2471Z" fill="#C92A46"/>
<path d="M55.2598 81.9068C56.8272 82.837 58.0443 84.1179 59.256 85.4042C62.3401 88.6757 65.1407 92.1571 67.3768 96.0691C71.4399 103.165 70.798 110.133 66.8419 116.995C65.9137 118.589 64.7501 120.072 63.6989 121.608C62.7413 123.006 62.7467 123.517 64.0092 124.702C65.2717 125.887 66.6841 127.043 68.0402 128.186C68.9366 128.917 69.7333 129.762 70.4101 130.697C71.028 131.58 71.2126 132.582 70.7498 133.592C70.2871 134.601 69.3134 135.029 68.2194 135C63.8888 134.88 60.0638 133.363 56.6453 130.769C56.416 130.561 56.2171 130.322 56.0542 130.06C55.994 129.993 55.9608 129.907 55.9608 129.818C55.9608 129.728 55.994 129.642 56.0542 129.576C56.2147 129.398 56.3752 129.512 56.525 129.605C57.2044 130.028 57.8758 130.466 58.5632 130.873C61.3049 132.505 64.2232 133.645 67.4223 133.985C68.2943 134.078 69.1529 134.073 69.6505 133.188C70.148 132.303 69.6933 131.553 69.177 130.87C67.861 129.159 66.0688 127.952 64.4639 126.554C61.2969 123.782 61.2006 123.198 63.7337 119.767C66.1411 116.524 68.1258 113.107 68.7811 109.057C69.7173 103.274 67.853 98.2642 64.5789 93.5922C62.102 90.055 59.1677 86.9057 56.3003 83.6953C55.8349 83.1824 55.3694 82.6642 55.2598 81.9068Z" fill="#C92A46"/>
<path d="M68.3828 18.3055C68.2036 18.3135 68.0241 18.301 67.8478 18.2683C66.7083 17.9254 66.0797 18.1035 65.8122 19.4881C65.5715 20.7398 63.7018 21.5876 62.4607 21.3139C62.121 21.2368 61.6582 21.1863 61.6582 20.7611C61.6582 20.3943 62.1022 20.4103 62.4098 20.3757C63.0793 20.3136 63.7183 20.068 64.2555 19.6662C65.0579 19.0576 65.4164 18.3374 64.852 17.3753C64.6326 16.9979 64.3304 16.5382 64.761 16.1714C65.1917 15.8047 65.5822 16.2671 65.938 16.4771C67.8826 17.6225 70.5307 17.3647 72.1356 15.8552C73.5292 14.545 73.2858 12.8415 71.5873 11.9459C71.194 11.7386 70.4504 11.7014 70.7634 11.0237C71.0309 10.4656 71.6327 10.7287 72.0821 10.8802C74.1016 11.5632 74.7917 14.25 73.4195 16.0678C73.1815 16.384 72.9274 16.7641 72.5903 16.9182C70.6778 17.7793 71.2984 19.3765 71.4482 20.785C71.5899 22.1138 72.3442 23.0147 73.6629 23.5117C76.3806 24.5349 76.7925 26.9453 74.559 29.0926C73.8234 29.7969 73.7004 30.0175 74.6152 30.6686C76.2629 31.8432 76.3565 34.9552 74.9281 36.6747C73.7512 38.0912 72.2693 39.1516 70.7393 40.1508C70.5922 40.2492 70.4371 40.3369 70.2846 40.4325C66.9892 42.5028 66.6227 43.6881 68.0484 47.2545C68.332 47.9668 69.2173 48.9501 68.348 49.4417C67.8826 49.7075 67.4332 48.3601 67.1283 47.6585C66.8478 46.9635 66.6058 46.2537 66.4034 45.5324C65.7935 43.5366 66.4596 41.9527 68.0885 40.7488C69.5169 39.6857 71.0068 38.7237 72.4593 37.7005C73.3095 37.1218 73.9979 36.3382 74.46 35.423C75.2625 33.8045 74.9683 32.5315 73.4596 31.5456C72.5208 30.9317 72.3282 30.3417 73.0424 29.3796C73.6175 28.6063 74.2514 27.8542 74.6312 26.9347C75.0405 25.9434 74.8987 25.0584 73.8555 24.7687C71.2101 24.0326 70.4317 22.1111 70.1321 19.6954C69.9609 18.3134 69.87 18.3374 68.3828 18.3055Z" fill="#C92A46"/>
<path d="M25.5425 49.3939C25.1091 50.045 24.4912 50.2204 23.9161 50.4091C22.2711 50.9406 20.6288 51.5253 18.9489 51.9398C18.0903 52.1524 17.7613 52.5617 17.7051 53.3696C17.4082 57.4809 21.5944 60.9225 25.5639 59.8143C26.7194 59.4927 27.8589 59.1153 29.0171 58.7964C29.2846 58.7193 29.6885 58.5811 29.8463 58.9505C30.0282 59.3784 29.6698 59.6335 29.3461 59.7478C28.3976 60.1247 27.4287 60.4485 26.4439 60.7178C25.5746 60.9358 25.3739 61.3344 25.7136 62.1396C26.6579 64.4438 28.565 66.3253 31.2479 65.5706C31.3771 65.5378 31.5108 65.5262 31.6438 65.536C32.2804 65.5759 33.3637 65.1507 33.4466 65.7593C33.5617 66.5991 32.4034 66.6549 31.7401 66.8223C28.7683 67.5983 25.3418 65.3553 24.8336 62.3044C24.7213 61.6241 24.5661 61.2945 23.7851 61.3185C21.5864 61.3929 19.9814 60.2554 18.6734 58.6343C17.8261 57.5487 17.153 56.3394 16.678 55.0492C16.4961 54.5894 16.3008 54.05 16.571 53.6407C17.5768 52.1179 16.4319 52.381 15.5011 52.1338C13.8878 51.7422 12.424 50.8927 11.2882 49.6889C9.65545 47.8608 8.48049 45.6754 7.85902 43.3107C7.79653 43.0985 7.75796 42.8801 7.744 42.6596C7.71725 42.128 7.65573 41.3308 8.16128 41.251C8.85942 41.1447 8.69625 41.9845 8.80592 42.4443C9.20982 44.1345 9.77421 45.753 10.7693 47.2014C13.0884 50.6004 15.8221 51.6236 19.7942 50.5659C21.1691 50.1991 22.5226 49.7526 23.8921 49.37C24.3816 49.2344 24.8951 48.9873 25.5425 49.3939Z" fill="#C92A46"/>
<path d="M17.1191 105.929C15.4393 107.154 13.9092 108.586 12.069 109.588C10.5389 110.409 8.96613 110.917 7.20608 110.569C4.26374 109.982 2.85677 107.646 3.6084 104.555C4.16477 102.272 5.72688 100.68 7.51101 99.3299C9.77661 97.6131 12.1385 96.0239 14.4656 94.3921C15.0175 93.9754 15.6525 93.6802 16.3281 93.5262C17.0038 93.3723 17.7047 93.3631 18.3843 93.4992C21.794 94.1757 25.1319 95.1705 28.3534 96.4704C28.7841 96.6458 29.2763 96.7893 29.6053 97.4085C28.637 97.5493 27.8318 97.1959 27.0214 96.9753C24.186 96.2046 21.3587 95.4073 18.5287 94.6393C18.0195 94.4769 17.479 94.4356 16.9507 94.5187C16.4225 94.6018 15.9213 94.8069 15.4874 95.1177C12.3552 97.2916 8.95275 99.104 6.30733 101.924C5.41307 102.863 4.82484 104.049 4.6195 105.325C4.1514 108.111 5.86598 109.87 8.71469 109.564C11.3066 109.299 13.1576 107.659 15.0942 106.179C15.4259 105.885 15.7762 105.612 16.1427 105.363C16.8008 104.988 17.1672 105.166 17.0816 105.977L17.1191 105.929Z" fill="#C92A46"/>
<path d="M70.5895 0.861085C74.3049 0.818564 76.6159 3.9492 75.3267 7.30839C75.1427 7.75753 74.8851 8.17331 74.5643 8.53885C74.2969 8.85244 73.925 9.30689 73.4543 8.89496C73.037 8.52822 73.4409 8.18007 73.6656 7.86648C74.2002 7.14952 74.5134 6.29357 74.567 5.4029C74.6312 4.0741 73.7646 2.86756 72.4111 2.34667C70.7527 1.70354 68.8214 1.90286 68.011 2.85959C67.6592 3.26473 67.4331 3.76245 67.36 4.29257C67.2868 4.82269 67.3699 5.36249 67.599 5.84671C68.0431 6.90975 68.7599 7.72031 70.0251 7.86382C70.4424 7.91166 71.1807 7.61135 71.0951 8.39534C71.0175 9.09162 70.322 9.00658 69.7951 8.95875C67.7943 8.79397 66.2563 6.90975 66.3365 4.78368C66.4248 2.28289 67.9414 0.887661 70.5895 0.861085Z" fill="#C92A46"/>
<path d="M67.2459 31.2798C68.8267 31.2798 69.5329 31.984 69.5409 33.5387C69.5409 35.6993 67.9681 37.3656 65.9406 37.3231C64.1243 37.2859 63.1025 36.3132 63.1453 34.6655C63.1962 32.885 65.1515 31.2691 67.2459 31.2798ZM67.0426 32.2259C65.8255 32.2631 64.2233 33.7354 64.2153 34.817C64.2153 35.7073 65.098 36.385 66.1893 36.3265C67.3716 36.2628 68.5164 34.91 68.4148 33.6317C68.3506 32.8238 68.0644 32.1568 67.0426 32.2259Z" fill="#C92A46"/>
<path d="M50.6136 20.2162C50.6537 21.2341 50.1642 22.1058 50.0385 23.0439C49.8513 24.4179 49.9422 25.7015 51.0362 26.7247C52.3977 27.995 54.0267 27.6867 54.8586 25.9912C55.2358 25.2231 55.3294 24.3966 55.4792 23.5568C55.5166 23.3549 55.5835 23.0997 55.875 23.113C56.1666 23.1263 56.2201 23.3309 56.295 23.5515C57.0627 25.8689 55.0137 28.6275 52.5663 28.6009C51.8502 28.5956 51.1607 28.331 50.627 27.8568C48.2517 25.8822 48.241 21.359 50.6136 20.2162Z" fill="#C92A46"/>
<path d="M54.7622 43.6721C53.4248 43.5127 52.1088 43.2788 51.1298 42.2397C50.8623 41.9527 50.56 41.5381 50.8917 41.1766C51.2234 40.8152 51.515 41.275 51.7825 41.4424C54.2487 43.037 55.7519 42.9227 57.9881 40.9109C59.2399 39.7814 59.0233 38.7131 57.4077 38.1709C56.9811 38.0595 56.5478 37.9752 56.1104 37.9184C55.6396 37.8254 55.4096 37.5278 55.5219 37.06C55.6155 36.6667 55.9205 36.4275 56.3244 36.5764C57.3649 36.9617 58.4375 37.3178 59.3041 38.0168C59.9942 38.5749 60.0531 39.4093 59.799 40.2173C59.2908 41.8251 56.4394 43.7518 54.7622 43.6721Z" fill="#C92A46"/>
<path d="M56.1719 30.7748C56.8487 33.3899 54.4787 36.8873 52.0767 37.0893C51.6835 37.1238 51.2743 37.1557 50.9239 36.9006C50.742 36.7677 50.5681 36.6348 50.5868 36.3691C50.5929 36.2562 50.6418 36.1498 50.7238 36.0714C50.8057 35.993 50.9145 35.9484 51.0282 35.9465C54.032 35.8402 54.9174 33.6105 55.7627 31.3276C55.8792 31.1296 56.0164 30.9443 56.1719 30.7748Z" fill="#C92A46"/>
<path d="M61.5967 27.7292C63.5787 28.0109 65.0044 27.1977 66.1439 25.7759C66.2857 25.5978 66.5024 25.4171 66.6949 25.5766C66.7642 25.6565 66.8151 25.7504 66.8442 25.8519C66.8733 25.9533 66.8798 26.0597 66.8635 26.1639C66.8136 26.4639 66.7025 26.7506 66.5371 27.0064C65.4966 28.5743 62.8137 29.0687 61.5967 27.7292Z" fill="#C92A46"/>
<path d="M35.4285 95.2877C34.6902 96.9381 33.3127 98.0915 32.2909 99.7285C31.9298 98.0304 33.1442 96.3534 35.4285 95.2877Z" fill="#C92A46"/>
<path d="M32.5559 101.746C33.2915 102.527 33.995 103.059 34.4283 103.858C33.1685 104.084 32.4917 103.38 32.5559 101.746Z" fill="#C92A46"/>
</g>
<defs>
<clipPath id="clip0_8079_463">
<rect width="129" height="135" fill="white"/>
</clipPath>
</defs>
</svg>
