<svg width="148" height="127" viewBox="0 0 148 127" fill="none" xmlns="http://www.w3.org/2000/svg">
<g clip-path="url(#clip0_8079_481)">
<path d="M28.7036 81.0399C29.0054 81.619 28.6688 81.9499 28.5834 82.3209C28.2174 83.8741 29.0722 84.8401 30.6748 84.6933C32.4805 84.5279 33.8054 82.7345 33.5596 80.7117C33.3139 78.6888 32.2909 77.125 30.7977 75.8386C29.1042 74.3735 27.157 73.2874 25.2098 72.2119C18.1127 68.2916 14.4827 62.1616 13.8897 54.1956C13.7775 52.6478 13.3288 51.8498 11.7768 51.6177C10.5481 51.4362 9.34882 51.0653 8.13614 50.7957C7.93023 50.7801 7.7232 50.7882 7.51912 50.8197C8.12813 51.8872 8.16553 52.9894 8.12813 54.0702C8.08539 55.2684 7.39892 55.6287 6.34651 55.0549C3.5018 53.5018 1.74422 50.9291 0.229705 48.1911C-0.357936 47.1236 0.229705 46.0214 1.47443 45.9707C4.09211 45.864 6.72046 45.9467 9.34348 45.9974C10.0139 45.9974 10.1448 46.4751 9.8777 47.0355C9.65065 47.5186 9.4797 48.063 9.1378 48.4473C8.12546 49.5788 8.87069 49.8804 9.84564 50.1099C10.5401 50.2727 11.2293 50.4595 11.9264 50.5822C12.5167 50.689 13.3421 51.116 13.6546 50.5182C14.0259 49.8297 14.2636 48.8583 13.8443 48.095C12.7091 46.0321 13.5772 44.2468 14.5201 42.4908C14.7465 42.1321 14.8303 41.7018 14.7551 41.2845C14.456 39.3951 15.3107 38.397 17.2232 38.4184C18.0245 38.4184 18.6416 38.341 19.0769 37.5057C21.0162 33.7909 23.738 30.7005 26.8712 27.9464C27.7967 27.1452 28.6372 26.251 29.3794 25.2778C29.2084 24.9468 28.96 25.0322 28.7597 24.9789C26.4785 24.3517 25.5543 22.0433 26.7697 20.0471C28.0598 17.9122 31.404 16.786 33.4261 17.7921C36.0972 19.1264 36.8638 22.4303 34.8444 24.9495C33.6745 26.4066 33.6077 27.7436 34.0965 29.3689C36.0759 35.9299 38.9733 42.1786 42.7028 47.9296C43.416 49.0371 44.3054 49.5868 45.6891 49.4534C48.6967 49.1625 51.7177 48.9783 54.7307 48.7488C56.4649 48.6503 58.2046 48.7272 59.9233 48.9783C60.4201 49.0397 61.2108 49.0264 61.1654 49.7016C61.1093 50.5022 60.3106 50.1606 59.8726 50.0939C55.0512 49.3653 50.2887 50.3607 45.4967 50.5369C44.6447 50.5662 44.3909 50.7797 44.4283 51.7911C44.4737 53.315 45.1682 53.854 46.4103 54.5826C48.8463 56.0077 51.4853 56.3679 54.1351 56.8696C58.9913 57.7761 63.7333 59.2124 68.2758 61.1529C68.4308 61.2196 68.5937 61.2596 69.0237 61.4037C67.982 57.5101 69.6568 54.1983 70.6104 50.745C70.7172 50.3554 70.776 49.6642 71.2675 49.7603C71.8017 49.859 71.7376 50.5475 71.6975 51.0172C71.6643 51.415 71.5574 51.8033 71.3823 52.1621C69.9185 55.135 69.6434 58.2814 69.9506 61.5238C70.0922 63.021 70.0414 63.0743 68.6818 62.4792C62.4448 59.7465 55.906 58.1159 49.1828 57.1072C48.394 56.9591 47.6532 56.6211 47.0246 56.1224C46.2981 55.5887 45.5421 55.1243 44.6393 54.9855C44.26 54.9295 43.7525 54.8228 43.5949 55.3058C43.472 55.6741 43.8407 55.9276 44.1291 56.1544C44.4497 56.4213 45.1335 56.4507 44.9545 57.0164C44.7755 57.5822 44.2013 57.382 43.7819 57.2833C43.3625 57.1845 43.1435 57.3206 42.9806 57.7183C42.2861 59.3195 41.621 59.605 39.9275 59.0526C39.2918 58.8498 38.6748 58.5883 38.0364 58.4015C37.6542 58.2825 37.2561 58.2222 36.8557 58.2227C36.1773 58.2387 35.3733 58.3187 35.3573 59.1861C35.3412 60.0134 36.0865 60.2722 36.789 60.2535C38.2527 60.1975 39.7272 60.0961 41.1803 60.2375C41.6183 60.2802 42.3635 60.1228 42.2487 60.854C42.2297 60.9997 42.1808 61.1399 42.1051 61.2659C42.0293 61.3919 41.9283 61.5009 41.8085 61.586C41.6886 61.6712 41.5525 61.7308 41.4085 61.7609C41.2646 61.7911 41.1159 61.7912 40.9719 61.7613C40.2721 61.6412 39.5829 61.4304 38.8804 61.3477C38.4878 61.3023 37.9001 61.0808 37.7719 61.7266C37.6624 62.2844 38.039 62.634 38.5466 62.8208C39.4767 63.1274 40.452 63.2754 41.4313 63.2585C41.856 63.2585 42.5772 62.9516 42.628 63.6748C42.6734 64.3313 41.9762 64.2512 41.5115 64.3233C41.3781 64.3253 41.2451 64.3369 41.1135 64.358C40.606 64.5208 39.7112 64.1685 39.6577 64.8597C39.6043 65.5509 40.4297 65.8925 41.028 66.1487C41.4081 66.2791 41.8188 66.2912 42.2059 66.1833C43.5415 65.8524 44.7221 65.4495 46.0443 66.581C46.7361 67.1708 48.0049 66.4849 49.0119 66.3141C49.4313 66.2447 50.0803 65.8604 50.2272 66.5356C50.3474 67.1281 49.669 67.2428 49.1909 67.3362C47.7031 67.6164 46.2366 67.9313 44.7889 67.0533C44.0143 66.5863 40.9959 67.4883 40.435 68.2222C38.3569 70.9443 36.2948 73.677 34.182 76.3724C33.7092 76.9755 33.6317 77.4559 33.9443 78.1604C34.8685 80.2313 34.9593 82.2969 33.5463 84.2263C32.4217 85.7608 30.592 86.2438 28.9253 85.4512C28.1239 85.0696 27.4989 84.5225 27.4642 83.5511C27.4108 82.5477 27.6565 81.6617 28.7036 81.0399ZM20.6208 54.724C19.6592 54.6253 19.8008 55.1483 19.8195 55.5807C20.0866 59.4689 21.5664 62.8902 23.8609 65.9725C26.3583 69.3244 29.2351 72.348 32.1413 75.3449C32.801 76.0254 33.1456 75.9347 33.6985 75.2782C35.7927 72.7937 37.6971 70.1864 39.5482 67.5177C39.8474 67.0907 39.9142 66.8772 39.4574 66.4502C38.3222 65.4121 38.389 63.4453 36.6875 62.7834C36.5753 62.7407 36.5406 62.2764 36.6073 62.0442C36.7756 61.4411 36.5112 61.2436 35.9716 61.1769C34.7509 61.0194 34.1793 60.2215 34.1793 59.0766C34.1793 58.3748 33.9122 58.2066 33.2872 58.0599C30.1807 57.3153 27.0849 56.528 23.9918 55.7274C22.7898 55.4179 21.6118 55.0229 20.6208 54.724ZM41.6183 57.8357C41.5302 57.5261 41.45 57.2326 41.3512 56.939C40.9131 55.4659 41.2363 54.8441 42.7188 54.4732C43.2263 54.3477 43.4934 54.1422 43.4801 53.5845C43.4794 52.6496 43.3334 51.7205 43.0473 50.8304C43.016 50.6596 42.9255 50.5053 42.7916 50.3946C42.6578 50.2838 42.4892 50.2236 42.3155 50.2246C39.2357 49.9764 36.3322 48.925 33.3513 48.2178C32.5656 48.0592 31.8338 47.7018 31.2258 47.1799C30.6178 46.658 30.1541 45.989 29.8789 45.2368C29.0726 43.1945 27.67 41.4417 25.8535 40.2064C25.0522 39.6726 24.2509 39.7527 23.4495 40.1503C23.3777 40.1812 23.3131 40.2267 23.26 40.2841C23.2069 40.3414 23.1664 40.4093 23.1412 40.4832C23.116 40.5572 23.1067 40.6357 23.1138 40.7135C23.1209 40.7913 23.1443 40.8667 23.1824 40.9349C23.5243 41.8343 24.2081 42.0184 25.1083 41.9757C26.1607 41.925 26.8739 42.8217 26.4599 43.6917C26.1447 44.3428 25.8028 45.0821 25.1243 45.461C23.9009 46.1469 23.6231 47.4465 23.0141 48.53C22.9467 48.6448 22.9168 48.7778 22.9288 48.9103C22.9408 49.0429 22.994 49.1684 23.0809 49.2692C23.7888 50.2566 23.6632 50.5369 22.4532 50.6249C21.9179 50.6426 21.3821 50.6185 20.8506 50.5529C20.4846 50.5208 20.1748 50.4621 20.0065 50.9425C19.507 52.3809 19.9691 53.4004 21.4355 53.878C25.6238 55.2578 29.9617 56.0637 34.2087 57.2086C34.5034 57.3072 34.8222 57.3072 35.1169 57.2086C36.4524 56.7149 37.7319 56.9417 39.0033 57.4754C39.826 57.8304 40.646 58.2307 41.6183 57.8357ZM41.8293 49.1625C41.8614 48.9356 41.9095 48.8316 41.8774 48.7675C41.7198 48.4526 41.5489 48.143 41.3699 47.8388C37.7452 41.6635 34.3182 35.4001 32.8545 28.288C32.6675 27.3753 32.3202 27.4554 31.7032 27.9198C30.4524 28.9168 29.2906 30.0204 28.2308 31.2183C26.4242 33.1802 24.9216 35.4011 23.7727 37.8072C23.6098 38.1462 23.1664 38.6345 24.0559 38.7146C26.8124 38.9628 28.7276 40.6547 29.8041 42.9258C31.1396 45.7119 33.1162 47.177 36.025 47.8602C37.9536 48.3032 39.8794 48.7568 41.8293 49.1625ZM28.5166 72.5215C26.1126 70.3225 23.8769 68.0728 22.1487 65.3534C19.8676 61.7667 18.5133 57.9104 18.8446 53.6405C19.1117 50.1205 19.1784 50.0778 15.7621 49.1038C15.2039 48.941 14.9127 49.0024 14.8673 49.6375C14.8379 50.0351 14.7177 50.4381 14.7231 50.8277C14.8192 60.0827 18.0272 67.5711 26.7644 71.897C27.2959 72.1425 27.7206 72.7056 28.5166 72.5215ZM31.4201 18.5073C30.2487 18.5647 29.141 19.0567 28.3136 19.887C27.5123 20.6369 26.8952 21.5549 27.4749 22.7238C28.0091 23.7913 28.9734 24.0155 30.0765 23.8714C30.4131 23.8287 30.8404 23.6258 31.0621 23.9968C31.2838 24.3677 31.0621 24.7974 30.8618 25.1256C30.1045 26.2778 29.181 27.312 28.1213 28.1946C24.9774 30.9194 22.2449 33.9803 20.1694 37.6231C19.5016 38.7946 20.3617 38.8053 20.9227 39.1949C21.748 39.7687 22.0819 39.3631 22.3544 38.5972C23.7193 34.7729 26.2542 31.7573 29.0989 28.9659C30.397 27.6929 31.7994 26.5214 33.159 25.3125C34.4651 24.1542 35.1169 22.086 34.5853 20.7383C34.0271 19.3133 32.8785 18.5046 31.4201 18.5073ZM17.7975 39.4431C16.7077 39.4004 15.9998 39.6566 15.7354 40.4946C15.5618 41.0497 15.9838 41.466 16.4593 41.6181C18.492 42.2693 20.5407 42.8671 22.5868 43.4702C22.7898 43.5316 23.0836 43.5743 23.1717 43.3341C23.2 43.2308 23.2046 43.1224 23.1852 43.017C23.1658 42.9117 23.1228 42.8121 23.0595 42.7256C22.6348 42.2746 21.9697 41.9624 21.724 41.442C20.8799 39.5525 19.0048 39.9582 17.8055 39.4431H17.7975ZM21.6786 46.5205C22.7978 46.5792 22.9046 46.5578 22.9981 46.1949C23.0612 46.0016 23.0544 45.7922 22.9787 45.6035C22.903 45.4147 22.7633 45.2585 22.5841 45.1621C20.6291 44.023 18.5006 43.2117 16.283 42.7603C16.039 42.6995 15.7808 42.7375 15.5647 42.8659C15.3486 42.9944 15.192 43.2029 15.1291 43.4462C14.9768 43.9612 15.2332 44.3081 15.698 44.4976C17.7521 45.3276 19.734 46.363 21.6866 46.5205H21.6786ZM21.0509 49.3546C21.3928 49.2639 21.9564 49.5041 22.098 48.8903C22.2395 48.2765 21.8308 47.8682 21.2966 47.6707C19.564 47.0249 17.8126 46.4084 16.0426 45.8213C15.4817 45.6318 14.7364 45.2555 14.4399 46.0588C14.1434 46.8621 14.6723 47.4172 15.3935 47.7241C17.2092 48.494 19.1115 49.0415 21.0589 49.3546H21.0509ZM25.4662 43.697C25.3433 43.2647 25.1857 42.9151 24.737 43.0592C24.1707 43.2407 23.4602 43.3261 23.332 44.06C23.2465 44.5403 23.706 44.6097 24.0532 44.5937C24.6809 44.5243 25.2125 44.2815 25.4742 43.697H25.4662Z" fill="#C92A46"/>
<path d="M99.4101 11.4406C100.93 11.7075 102.263 12.2413 102.41 14.2081C103.999 13.1542 105.679 12.2449 107.431 11.4914C109.568 10.5893 111.748 10.125 114.066 10.3999C117.33 10.7868 118.663 13.1246 117.371 16.1589C116.767 17.5813 115.613 18.494 114.448 19.38C113.968 19.7456 113.778 19.8737 114.066 20.5809C115.853 24.9228 115.754 29.158 112.944 33.0997C112.608 33.572 112.624 33.8843 112.768 34.3967C113.821 38.1328 113.361 41.5274 110.436 44.3322C110.222 44.5085 110.061 44.7416 109.972 45.0049C109.883 45.2681 109.87 45.551 109.934 45.8213C110.519 49.9124 108.064 52.6425 104.274 53.8274C103.82 53.9715 103.577 53.7526 103.411 53.4271C103.179 52.96 103.545 52.7599 103.892 52.6718C105.114 52.4026 106.253 51.8453 107.215 51.0466C108.599 49.827 109.085 48.2712 108.933 46.4911C108.876 45.816 108.665 45.4237 107.813 45.7653C107.015 46.1473 106.108 46.2343 105.252 46.0108C105.591 45.2582 106.32 45.2502 106.886 45.026C110.805 43.4809 112.44 41.023 112.202 36.9106C112.165 36.4285 112.07 35.9527 111.919 35.4935C111.678 34.7356 111.288 34.5968 110.524 35.0318C108.922 35.9445 107.252 36.7665 105.241 37.1427C105.431 36.3875 105.933 36.2621 106.31 36.0539C107.327 35.5068 108.39 35.0425 109.389 34.4527C111.454 33.2375 113.006 31.3142 113.758 29.0408C114.509 26.7673 114.408 24.2986 113.473 22.094C112.803 20.4928 112.733 20.5168 111.158 21.2267C106.617 23.2736 102.567 25.9156 99.9817 30.487C99.2899 29.6304 99.7359 29.038 100.083 28.4615C101.969 25.3338 104.878 23.391 107.976 21.667C109.803 20.6583 111.74 19.8523 113.511 18.7315C114.445 18.1281 115.286 17.3918 116.008 16.5458C116.879 15.5397 117.007 14.3575 116.591 13.162C116.174 11.9664 115.06 11.5821 113.919 11.5074C111.418 11.356 108.922 11.8688 106.683 12.9938C103.521 14.5481 100.669 16.6651 98.2668 19.2412C97.957 19.5695 97.6658 20.4101 97.0622 19.8123C96.5787 19.3319 97.2064 18.8516 97.5136 18.4486C98.3857 17.3787 99.391 16.4245 100.505 15.6091C101.379 14.926 101.499 14.152 100.895 13.3167C100.292 12.4814 99.3914 12.2759 98.4137 12.7456C98.3391 12.7933 98.2605 12.8344 98.1787 12.8684C97.7112 12.9912 97.2839 13.8345 96.8565 13.3007C96.3223 12.6496 97.1396 12.2092 97.543 11.7956C98.8144 10.4906 100.131 9.22831 101.413 7.93133C102.489 6.85636 103.231 5.49422 103.55 4.00836C103.98 2.04955 102.907 0.942045 100.893 1.15554C98.4885 1.42241 96.4932 2.53258 94.6181 3.91763C90.0416 7.24655 86.2016 11.4828 83.3381 16.3617C82.0853 18.4967 83.111 20.3647 83.3782 22.3369C83.4503 22.8706 84.4653 23.2656 85.077 23.746C85.5952 22.8626 85.9985 21.9659 86.6983 21.2614C87.7668 20.1939 88.2716 20.2446 89.0435 21.5523C89.1985 21.8192 89.3374 22.086 89.5564 22.4943C90.2626 21.3426 91.1286 20.2968 92.1287 19.388C93.0155 18.5874 93.4642 18.7021 93.8328 19.8203C94.4358 21.5428 94.8076 23.3376 94.9387 25.1577C95.139 28.3361 93.9584 30.1561 90.932 31.0288C89.9945 31.2957 89.3294 32.1416 88.5815 32.3258C86.5194 32.8328 87.4596 33.975 87.7133 35.0265C87.9805 36.15 88.2476 37.2735 88.5547 38.3864C88.6721 38.8605 88.8387 39.3211 89.0516 39.7607C89.3988 40.4359 89.8983 40.9349 90.7557 40.6627C91.6879 40.3665 91.8482 39.622 91.6105 38.8374C91.0763 37.0974 90.4592 35.3841 89.8743 33.6601C89.8315 33.5347 89.7995 33.3932 89.7487 33.2812C89.543 32.7474 89.3828 32.0856 90.0158 31.8988C90.6996 31.6933 90.7771 32.4699 90.924 32.9342C91.4742 34.6689 91.9924 36.4035 92.5267 38.1622C93.0609 39.9208 92.556 41.2979 91.2686 41.7649C89.933 42.2479 88.723 41.5648 87.9457 39.8968C87.8489 39.7241 87.7114 39.5775 87.5451 39.4698C87.6332 41.071 86.6689 42.0131 85.6486 42.9098C85.3892 43.1491 85.0876 43.3382 84.7591 43.4675C84.6775 43.5067 84.5881 43.5269 84.4976 43.5267C84.4071 43.5264 84.3178 43.5058 84.2364 43.4663C84.155 43.4268 84.0836 43.3694 84.0275 43.2985C83.9714 43.2275 83.932 43.1448 83.9124 43.0565C83.8858 42.9834 83.8745 42.9057 83.8792 42.828C83.8838 42.7504 83.9042 42.6745 83.9392 42.605C83.9742 42.5356 84.0231 42.474 84.0828 42.4241C84.1425 42.3741 84.2117 42.3369 84.2863 42.3147C86.4232 41.2899 86.912 39.4512 86.6609 37.2975C86.4713 35.667 86.2977 34.0204 85.288 32.6273C84.9968 32.227 85.0049 31.8774 85.2506 31.4077C86.0706 29.8279 85.5177 26.0517 84.3317 24.712C83.7441 24.0528 83.5304 23.7193 82.6703 24.8081C81.3561 26.4867 81.4603 27.4768 82.8439 28.9819C84.0059 30.2469 83.7441 31.9175 82.6383 33.2518C82.104 33.9003 82.0319 34.2312 82.7131 34.9331C85.117 37.4203 83.9471 40.2704 80.5495 42.0398C80.0984 42.2273 79.6307 42.3721 79.1525 42.4721C76.655 43.2113 75.7869 42.7176 75.1272 40.0916C74.7015 40.5803 74.1834 40.9802 73.6026 41.2682C73.0218 41.5563 72.3898 41.7269 71.7429 41.7702C70.9415 41.8183 70.2177 41.6822 69.7262 40.9937C69.192 40.2464 69.5152 39.5366 69.9345 38.8881C70.3027 38.3333 70.7088 37.8045 71.1499 37.3055C71.3716 37.0387 71.6841 36.6784 72.0447 36.9639C72.4587 37.2869 72.1783 37.6898 71.9566 38.0314C71.6627 38.4744 71.3395 38.8987 71.0484 39.3471C70.8561 39.6433 70.645 39.9716 70.8801 40.3318C71.1472 40.7375 71.5746 40.7081 71.9646 40.5987C73.2227 40.2758 74.438 39.8701 75.2714 38.7546C75.5518 38.3783 75.9258 37.7832 76.4066 38.0047C76.9729 38.2716 76.5348 38.848 76.4306 39.291C75.9766 41.1751 76.7699 41.8957 78.6904 41.426C79.9625 41.1669 81.1232 40.5209 82.0132 39.5766C83.3755 38.0661 83.1137 36.4142 81.4096 35.2907C79.9618 34.3353 79.9618 34.3353 81.1077 33.1797C82.7264 31.5465 82.7585 30.4417 81.2333 28.6857C81.2039 28.651 81.1745 28.619 81.1478 28.5843C80.659 27.9598 79.7722 27.5328 79.7161 26.7162C79.66 25.8996 80.6964 25.6727 81.1718 25.115C82.3952 23.6606 82.4353 20.4661 81.2146 19.0197C80.5228 18.2031 79.6867 18.2538 78.7785 18.486C78.4206 18.574 77.9772 18.8649 77.7101 18.3605C77.4644 17.9069 77.7822 17.5893 78.1054 17.3491C79.4116 16.3831 79.6253 15.0781 79.1391 13.6637C78.6236 12.1559 77.2694 11.7129 75.8644 11.5287C75.018 11.4215 74.1591 11.58 73.407 11.9824C73.1212 12.1345 72.7552 12.5161 72.4854 12.0971C72.2157 11.6782 72.5335 11.3179 72.8861 11.0857C74.1228 10.2664 75.5038 10.1997 76.8687 10.552C79.6867 11.2672 80.9902 13.4181 80.2129 16.2096C79.9004 17.3358 80.8353 17.0609 81.2039 17.3838C81.7889 17.8882 81.8156 17.1863 81.9625 16.9088C85.1756 10.7279 89.985 5.51825 95.8922 1.82004C97.5216 0.800605 99.2498 0 101.248 0C103.831 0 105.193 1.63323 104.677 4.17916C104.143 6.86919 102.273 8.67055 100.404 10.4586C100.078 10.7601 99.6318 10.9229 99.4101 11.4406ZM93.9236 25.2911C93.8893 23.8972 93.6351 22.5175 93.1704 21.2027C92.9033 20.5035 92.6362 20.4021 92.0752 20.9705C91.5143 21.5389 91.1938 22.4863 90.3684 22.7826C89.7487 23.0067 89.8342 23.3163 89.9597 23.762C90.4112 25.3392 90.8118 26.9244 90.8011 28.5843C90.8011 28.9606 90.7157 29.4409 91.2071 29.6037C91.6265 29.7398 91.9711 29.4676 92.2996 29.2408C93.718 28.2587 93.8542 26.7589 93.9236 25.2911ZM89.4389 28.2694C89.4501 26.3136 88.9687 24.3864 88.0392 22.6651C87.8896 22.3983 87.6813 21.8058 87.3207 22.2008C86.6262 22.9614 85.694 23.874 85.9851 24.9175C86.5163 26.8364 86.7814 28.819 86.7731 30.81C86.7731 31.5519 87.1177 31.6453 87.692 31.3437C89.0435 30.6445 89.4122 29.4196 89.4389 28.2694Z" fill="#C92A46"/>
<path d="M118.561 80.4982C116.692 79.8123 114.91 79.1639 113.136 78.5047C112.458 78.2378 112.127 78.3739 111.932 79.1452C110.936 83.1162 109.45 86.9297 108 90.7486C107.607 91.7814 107.794 92.2537 108.74 92.6967C111.913 94.1805 115.18 95.3147 118.727 95.272C122.274 95.2293 124.94 93.3052 127.44 91.1196C131.076 87.9438 133.781 84.1436 134.754 79.3213C134.973 78.2352 135.512 77.9149 136.503 78.027C138.097 78.2354 139.714 78.2102 141.301 77.9523C142.903 77.6694 144.399 77.1517 145.617 76.0201C146.349 75.3423 147.083 74.539 146.763 73.4849C146.442 72.4308 145.329 72.4014 144.418 72.2947C141.327 71.9317 138.218 71.7182 135.144 71.2005C134.31 71.0617 133.453 71.0324 132.638 70.8349C130.539 70.3252 128.92 71.1018 127.507 72.5775C125.424 74.7712 123.327 76.9506 121.217 79.1158C120.949 79.404 120.656 80.0232 120.169 79.6175C119.622 79.1665 120.135 78.7742 120.471 78.4166C122.397 76.3804 124.323 74.3469 126.23 72.2947C128.137 70.2424 130.223 69.3111 133.119 69.8315C137.184 70.5627 141.322 70.8989 145.406 71.4967C148.048 71.889 148.707 73.5516 147.233 75.7986C146.462 76.9584 145.331 77.8331 144.014 78.2885C141.899 79.0598 139.687 79.4627 137.459 79.1078C136.249 78.9157 135.857 79.2519 135.566 80.3621C133.883 86.5428 130.028 91.1329 124.721 94.5248C120.853 96.996 116.708 96.7451 112.509 95.3734C110.937 94.8889 109.412 94.2637 107.952 93.5054C107.319 93.1638 107.049 93.3105 106.763 93.9324C106.095 95.3895 105.999 96.7772 106.707 98.2823C108.759 102.635 111.248 106.737 113.612 110.913C114.183 111.868 114.639 112.886 114.972 113.947C115.118 114.455 115.26 114.991 114.6 115.549C113.657 113.448 112.642 111.452 111.545 109.499C109.349 105.589 107.089 101.712 105.254 97.6045C104.816 96.6277 104.72 95.8058 105.166 94.8344C107.303 90.2335 108.932 85.4379 110.452 80.6049C111.563 77.0769 111.964 73.4582 111.293 69.8101C110.3 64.4194 106.91 60.9714 102.084 58.663C97.8819 56.6562 93.3357 55.6981 88.9791 54.1663C84.4383 52.5651 80.7735 49.795 77.7605 46.1095C77.5068 45.8 77.1542 45.3676 77.4934 45.0634C77.8326 44.7592 78.1799 45.2476 78.4523 45.4904C79.9749 46.8541 81.3077 48.426 82.9104 49.7016C83.9743 50.5336 85.1634 51.1921 86.4336 51.6524C85.6937 49.5174 85.4907 47.4572 84.457 45.6505C84.3074 45.3837 83.9548 45.1755 84.1444 44.8499C84.3768 44.4443 84.7561 44.6845 85.0953 44.7352C88.5411 45.2502 91.7223 44.7085 94.4709 42.4001C95.4191 41.5995 95.7717 40.532 96.0495 39.3951C96.1163 39.1283 96.0335 38.6426 96.4662 38.6853C96.8989 38.728 96.8936 39.179 96.9123 39.5339C96.9546 40.2503 96.7895 40.9637 96.4368 41.5888C96.0255 42.2987 96.1697 42.8644 96.4983 43.5609C98.2995 47.3384 99.5291 51.3622 100.147 55.5006C100.358 56.9631 101.483 57.1365 102.409 57.6142C102.898 57.8651 102.962 57.3207 103.026 57.0004C103.163 56.3493 103.248 55.6874 103.358 55.0283C103.398 54.7908 103.518 54.5959 103.772 54.5773C104.14 54.5479 104.212 54.8441 104.21 55.111C104.21 55.8662 104.284 56.6562 104.09 57.3634C103.865 58.164 104.09 58.583 104.768 58.9646C111.245 62.7701 113.254 68.6786 112.533 75.7773C112.426 76.8288 112.706 77.1917 113.617 77.4746C115.014 77.9122 116.417 78.3632 117.677 79.1425C118.121 79.412 118.596 79.6869 118.561 80.4982ZM99.0278 55.2097C98.3974 51.3295 97.0859 47.564 95.5554 43.8652C95.2642 43.166 94.8448 43.5983 94.4869 43.8198C92.2296 45.2654 89.6164 46.0596 86.9357 46.1149C86.1077 46.1149 85.9608 46.4351 86.1932 47.1823C86.6722 48.7053 87.1174 50.2389 87.5287 51.7832C87.681 52.3569 88.0923 52.5224 88.5517 52.7092C91.7277 53.9928 95.0105 54.9482 98.2986 55.8903C98.9423 56.0664 99.1213 55.9116 99.0278 55.2097Z" fill="#C92A46"/>
<path d="M115.658 116.416C115.624 120.272 113.652 122.922 111.048 125.223C109.894 126.234 108.585 126.987 106.977 127.008C105.369 127.029 104.501 126.421 104.106 124.825C103.489 122.348 104.106 119.973 104.75 117.62C104.891 117.104 105.062 116.597 105.233 116.096C106.002 113.851 105.952 113.707 103.745 112.68C99.5811 110.745 95.7614 108.375 93.077 104.506C90.3605 100.591 89.2333 96.2514 89.5378 91.5225C89.6152 90.3242 89.6873 89.1207 89.8663 87.9358C89.9812 87.1779 89.7247 87.0471 89.0356 87.0177C81.1131 86.6922 74.9162 82.9373 69.7423 77.2157C68.9996 76.3232 67.9533 75.7359 66.8041 75.5664C61.5979 74.8821 56.7667 72.4893 53.0693 68.764C52.5351 68.2302 51.9448 67.7525 51.3945 67.2321C51.1274 66.9866 50.8229 66.6477 51.1007 66.3194C51.4319 65.9271 51.846 66.1967 52.1478 66.4662C53.1067 67.3282 54.0309 68.2275 54.9925 69.0842C58.1284 71.8676 61.8038 73.4662 65.8986 74.3655C72.2104 75.7479 79.4571 70.2104 79.417 64.0003C79.417 63.0289 79.5318 62.0549 79.6013 60.9447C80.253 61.4171 80.2797 62.0122 80.3412 62.6126C80.814 67.1787 78.3138 71.6515 73.9519 74.0052C72.9743 74.539 71.986 75.0727 70.8828 75.2809C69.7797 75.489 69.6515 75.9107 70.4368 76.6953C73.164 79.3933 76.1262 81.7711 79.5986 83.5298C82.2697 84.8641 85.1037 85.5446 88.0366 85.8702C90.0399 86.0917 90.1735 85.9343 90.5822 83.9781C91.0229 81.8965 91.298 79.7669 92.1581 77.7921C92.2743 77.5776 92.4055 77.3716 92.5508 77.1756C93.0262 77.6347 92.7805 78.1123 92.703 78.55C91.9952 82.6171 91.0336 86.6441 90.6863 90.7726C89.9651 99.3951 94.0145 106.627 101.769 110.521C103 111.14 104.213 111.799 105.465 112.373C106.769 112.971 107.055 113.931 106.665 115.218C106.131 117.003 105.57 118.783 105.062 120.582C104.733 121.744 104.699 122.969 104.963 124.147C105.295 125.631 106.408 126.282 107.864 125.852C110.22 125.145 111.783 123.451 113.025 121.457C113.812 120.266 114.383 118.947 114.713 117.558C114.743 117.297 114.849 117.05 115.017 116.848C115.184 116.645 115.407 116.495 115.658 116.416Z" fill="#C92A46"/>
<path d="M57.7811 19.7856C56.9183 21.8245 56.0422 23.8553 58.2752 25.4539C59.6455 26.4333 60.8822 25.6887 62.0815 24.9442C62.1269 27.0631 60.2572 28.6456 58.8762 27.5328C57.8959 26.7322 56.7393 25.9716 56.0823 24.784C55.9567 24.5599 55.8151 24.341 55.743 24.213C53.6489 24.7467 53.3898 25.8942 54.111 27.8023C54.8162 29.6704 54.4128 31.4718 52.5537 32.7234C51.6616 33.3238 51.3811 34.2579 51.731 35.3173C52.081 36.3768 52.7995 37.036 53.8519 37.0787C55.2783 37.1401 55.1874 37.8553 54.8642 38.8507C54.0148 41.458 54.8028 43.0218 57.367 44.092C59.2725 44.88 61.3801 45.039 63.3823 44.5457C64.7045 44.2468 65.391 44.8125 65.8344 45.9574C66.4648 47.596 66.8441 49.2719 66.6678 51.0279C66.6251 51.4522 66.6678 52.0473 66.0347 52.002C65.4017 51.9566 65.5513 51.3375 65.5727 50.9345C65.6608 49.352 65.4658 47.8361 64.7045 46.4191C64.3787 45.8079 64.0207 45.5944 63.2248 45.7119C60.5243 46.1122 57.9173 45.7839 55.5427 44.2708C53.5714 43.0112 52.9945 41.7222 53.5661 39.275C53.7691 38.4077 53.6222 38.0714 52.7354 37.7485C50.1631 36.8091 49.5675 33.5347 51.7391 32.0108C53.0479 31.0901 53.3417 30.0414 53.1761 28.6003C53.0719 27.6609 52.7247 26.7936 52.5858 25.8729C52.4843 25.1897 51.9047 25.131 51.4265 24.9335C48.7554 23.8287 47.9701 21.5763 49.3644 19.1211C49.5462 18.7636 49.8236 18.4633 50.1658 18.2538C50.6092 18.0056 51.1621 17.4238 51.5761 17.9015C52.0623 18.4619 51.2716 18.7848 50.9511 19.1291C49.5247 20.6636 49.3912 22.0113 50.5985 23.2202C51.7257 24.3517 53.6382 24.3064 54.9524 23.1642C55.3931 22.7799 55.5106 22.2755 55.7003 21.7844C56.1757 20.5649 56.5497 20.1806 57.7811 19.7856Z" fill="#C92A46"/>
<path d="M58.6198 8.00607C60.0355 7.94202 61.2562 8.38235 62.1884 9.46317C62.6799 10.0343 62.9898 10.3011 63.7029 9.59393C65.0385 8.25959 67.2368 8.15818 68.7647 9.11891C70.5356 10.2344 71.7776 12.799 71.3316 14.4696C71.2194 14.8833 71.0965 15.4624 70.5543 15.385C70.0121 15.3076 70.0868 14.6965 70.1082 14.2855C70.1475 13.3508 69.9403 12.4222 69.5072 11.5928C68.4014 9.40712 66.0108 8.95612 64.1356 10.5253C63.6281 10.955 63.5347 11.4513 63.5747 12.0598C63.6355 12.7482 63.5456 13.4416 63.3113 14.0918C63.0769 14.7421 62.7038 15.3336 62.2178 15.8253C61.8992 16.2006 61.4762 16.4727 61.0025 16.6072C60.5911 16.706 60.1237 16.7353 59.934 16.319C59.7444 15.9027 60.2198 15.7372 60.4923 15.5398C62.4235 14.1467 62.8535 12.9325 62.0308 11.1791C61.2081 9.4258 59.4372 8.64388 57.4499 9.15894C56.6881 9.39709 55.94 9.67683 55.2089 9.9969C54.8055 10.1544 54.3087 10.4879 54.0229 9.9969C53.705 9.43648 54.29 9.26035 54.6693 9.05753C55.8746 8.3756 57.2347 8.0136 58.6198 8.00607Z" fill="#C92A46"/>
<path d="M48.1568 18.4913C48.011 18.5866 47.8427 18.642 47.6688 18.6518C47.4949 18.6617 47.3214 18.6256 47.1658 18.5474C45.1117 17.5946 43.9792 13.9065 44.9916 11.4727C45.9104 9.26301 48.5575 8.25425 50.9508 9.19896C52.3157 9.7327 52.8072 10.6214 52.4305 12.0438C52.0112 13.6183 50.916 14.8432 50.1361 16.2309C50.0792 16.343 49.9978 16.4408 49.8979 16.5172C49.7981 16.5935 49.6823 16.6465 49.5592 16.6721C49.4361 16.6978 49.3088 16.6954 49.1867 16.6652C49.0646 16.635 48.9509 16.5778 48.854 16.4978C48.3999 16.1455 48.8139 15.7399 49.0035 15.4517C49.6393 14.4883 50.3898 13.5996 50.9908 12.6175C51.8963 11.1338 51.4663 10.2985 49.7568 10.0449C47.2112 9.66865 45.5204 11.2485 45.7047 13.8238C45.8056 14.9827 46.2617 16.0824 47.0109 16.9728C47.3795 17.4505 47.7401 17.9442 48.1568 18.4913Z" fill="#C92A46"/>
<path d="M61.8329 36.1847C62.14 36.2193 62.4526 36.2434 62.7597 36.2887C64.4025 36.5343 65.2465 37.4203 65.1317 38.7733C65.0168 40.1263 63.6359 41.3886 62.2202 41.3459C61.7068 41.3334 61.2013 41.2164 60.7347 41.0022C60.2681 40.7879 59.8501 40.4808 59.5063 40.0996C58.8359 39.3764 58.5074 38.429 58.9881 37.5217C59.5651 36.4382 60.6335 36.0806 61.8329 36.1847ZM61.8836 37.2681C61.0315 37.3429 60.0299 37.1294 59.9952 38.4077C59.9658 39.4031 60.9354 40.3024 61.9878 40.3318C63.139 40.3692 64.1247 39.5872 64.0659 38.5571C63.9804 37.0947 62.7143 37.4843 61.8836 37.2681Z" fill="#C92A46"/>
<path d="M73.4042 24.4238C73.4229 26.3746 72.5308 27.7356 71.0724 27.9838C69.5311 28.2507 67.5064 27.1485 67.0256 25.7688C66.8707 25.3205 66.5822 24.7013 67.1191 24.4345C67.7041 24.1276 67.7682 24.8641 67.9846 25.1764C69.0877 26.7562 70.3084 27.3113 71.3982 26.6815C72.4266 26.089 72.7338 24.2797 72.0072 22.8039C71.6809 22.2234 71.3242 21.6604 70.9388 21.1173C70.8026 20.8985 70.5942 20.6423 70.8426 20.4074C71.0911 20.1726 71.3421 20.3914 71.5612 20.5222C73.041 21.4135 73.3775 22.8466 73.4042 24.4238Z" fill="#C92A46"/>
<path d="M73.188 35.4508C71.2434 35.3601 69.152 33.7348 68.7006 32.0349C68.5937 31.6266 68.372 31.0528 68.8501 30.8313C69.4271 30.5645 69.5339 31.1969 69.7209 31.5679C70.5222 33.1691 71.6681 34.2926 73.6234 34.2526C74.0107 34.2526 74.6331 33.9297 74.7212 34.5728C74.8093 35.216 74.1496 35.2613 73.7062 35.4134C73.5367 35.4544 73.3616 35.467 73.188 35.4508Z" fill="#C92A46"/>
<path d="M60.0195 32.8248C59.3495 32.8438 58.6836 32.7144 58.0696 32.4459C57.6155 32.2777 57.514 31.9121 57.6796 31.4745C57.8265 31.0848 58.1257 31.0662 58.4248 31.2663C59.6455 32.0669 60.7941 31.5652 61.948 31.1035C62.2739 30.9728 62.6826 30.7352 62.915 31.0822C63.2114 31.5198 62.7734 31.7974 62.4609 32.0242C61.7716 32.5789 60.9037 32.8635 60.0195 32.8248Z" fill="#C92A46"/>
<path d="M119.756 84.9896V81.8939C120.878 82.9587 120.87 84.1356 119.756 84.9896Z" fill="#C92A46"/>
</g>
<defs>
<clipPath id="clip0_8079_481">
<rect width="148" height="127" fill="white"/>
</clipPath>
</defs>
</svg>
