<svg width="82" height="73" viewBox="0 0 82 73" fill="none" xmlns="http://www.w3.org/2000/svg">
<path d="M60.303 1.48168C67.5001 1.88255 74.408 5.66215 77.9661 12.2701C81.655 19.1211 81.624 28.7756 75.014 40.4215L75.0131 40.4214C68.1613 52.4814 56.757 62.8766 42.0052 71.5401L41.509 71.831L41.0081 71.5492C28.7418 64.6428 17.9476 55.6372 9.60496 43.9521L8.80522 42.8133C0.18398 30.3322 -0.518681 19.8608 2.95027 12.438C6.39944 5.05775 13.8729 0.939814 21.0605 1.00071C27.1073 1.04969 31.7031 2.87881 35.0069 5.87736C37.4918 8.13262 39.1973 11.0063 40.2545 14.1738C43.3163 7.53353 50.5633 1.22772 59.6053 1.45308L60.303 1.48168Z" stroke="#C92A46" stroke-width="2"/>
</svg>
